<svg xmlns="http://www.w3.org/2000/svg" xmlns:xlink="http://www.w3.org/1999/xlink" version="1.1" viewBox="121.72 53.9 1030.63 455.97">
<defs>
<clipPath id="clip1">
  <path d="M 174.667969 69 L 178 69 L 178 448.417969 L 174.667969 448.417969 Z M 174.667969 69 "/>
</clipPath>
<clipPath id="clip2">
  <path d="M 333 69 L 339 69 L 339 448.417969 L 333 448.417969 Z M 333 69 "/>
</clipPath>
<clipPath id="clip3">
  <path d="M 494 69 L 500 69 L 500 448.417969 L 494 448.417969 Z M 494 69 "/>
</clipPath>
<clipPath id="clip4">
  <path d="M 655 69 L 661 69 L 661 448.417969 L 655 448.417969 Z M 655 69 "/>
</clipPath>
<clipPath id="clip5">
  <path d="M 816 69 L 822 69 L 822 448.417969 L 816 448.417969 Z M 816 69 "/>
</clipPath>
<clipPath id="clip6">
  <path d="M 978 69 L 983 69 L 983 448.417969 L 978 448.417969 Z M 978 69 "/>
</clipPath>
<clipPath id="clip7">
  <path d="M 1139 69 L 1141.6875 69 L 1141.6875 448.417969 L 1139 448.417969 Z M 1139 69 "/>
</clipPath>
<clipPath id="clip8">
  <path d="M 174.667969 446 L 1141.6875 446 L 1141.6875 448.417969 L 174.667969 448.417969 Z M 174.667969 446 "/>
</clipPath>
<clipPath id="clip9">
  <path d="M 174.667969 319 L 1141.6875 319 L 1141.6875 325 L 174.667969 325 Z M 174.667969 319 "/>
</clipPath>
<clipPath id="clip10">
  <path d="M 174.667969 193 L 1141.6875 193 L 1141.6875 198 L 174.667969 198 Z M 174.667969 193 "/>
</clipPath>
<clipPath id="clip11">
  <path d="M 174.667969 69 L 1141.6875 69 L 1141.6875 72 L 174.667969 72 Z M 174.667969 69 "/>
</clipPath>
<clipPath id="clip12">
  <path d="M 174.667969 163 L 1141.6875 163 L 1141.6875 412 L 174.667969 412 Z M 174.667969 163 "/>
</clipPath>
</defs>
<g id="surface1">
<path style=" stroke:none;fill-rule:nonzero;fill:rgb(100%,100%,100%);fill-opacity:1;" d="M 174.667969 448.417969 L 1141.6875 448.417969 L 1141.6875 69 L 174.667969 69 Z M 174.667969 448.417969 "/>
<path style="fill:none;stroke-width:0.8;stroke-linecap:square;stroke-linejoin:round;stroke:rgb(80.000001%,53.333336%,53.333336%);stroke-opacity:1;stroke-miterlimit:4;" d="M 45.458437 96.435937 L 45.458437 96.765 " transform="matrix(4.166667,0,0,4.166667,0,0)"/>
<path style="fill:none;stroke-width:0.8;stroke-linecap:square;stroke-linejoin:round;stroke:rgb(80.000001%,53.333336%,53.333336%);stroke-opacity:1;stroke-miterlimit:4;" d="M 52.977187 94.384687 L 52.977187 94.910625 " transform="matrix(4.166667,0,0,4.166667,0,0)"/>
<path style="fill:none;stroke-width:0.8;stroke-linecap:square;stroke-linejoin:round;stroke:rgb(80.000001%,53.333336%,53.333336%);stroke-opacity:1;stroke-miterlimit:4;" d="M 58.699687 93.321562 L 58.699687 93.499687 " transform="matrix(4.166667,0,0,4.166667,0,0)"/>
<path style="fill:none;stroke-width:0.8;stroke-linecap:square;stroke-linejoin:round;stroke:rgb(80.000001%,53.333336%,53.333336%);stroke-opacity:1;stroke-miterlimit:4;" d="M 64.772813 90.900937 L 64.772813 92.001562 " transform="matrix(4.166667,0,0,4.166667,0,0)"/>
<path style="fill:none;stroke-width:0.8;stroke-linecap:square;stroke-linejoin:round;stroke:rgb(80.000001%,53.333336%,53.333336%);stroke-opacity:1;stroke-miterlimit:4;" d="M 70.438125 90.40125 L 70.438125 90.604687 " transform="matrix(4.166667,0,0,4.166667,0,0)"/>
<path style="fill:none;stroke-width:0.8;stroke-linecap:square;stroke-linejoin:round;stroke:rgb(80.000001%,53.333336%,53.333336%);stroke-opacity:1;stroke-miterlimit:4;" d="M 78.317813 87.6825 L 78.317813 88.66125 " transform="matrix(4.166667,0,0,4.166667,0,0)"/>
<path style="fill:none;stroke-width:0.8;stroke-linecap:square;stroke-linejoin:round;stroke:rgb(80.000001%,53.333336%,53.333336%);stroke-opacity:1;stroke-miterlimit:4;" d="M 83.421562 85.515937 L 83.421562 87.402187 " transform="matrix(4.166667,0,0,4.166667,0,0)"/>
<path style="fill:none;stroke-width:0.8;stroke-linecap:square;stroke-linejoin:round;stroke:rgb(80.000001%,53.333336%,53.333336%);stroke-opacity:1;stroke-miterlimit:4;" d="M 92.796562 84.044062 L 92.796562 85.090312 " transform="matrix(4.166667,0,0,4.166667,0,0)"/>
<path style="fill:none;stroke-width:0.8;stroke-linecap:square;stroke-linejoin:round;stroke:rgb(80.000001%,53.333336%,53.333336%);stroke-opacity:1;stroke-miterlimit:4;" d="M 99.706875 80.162813 L 99.706875 83.385937 " transform="matrix(4.166667,0,0,4.166667,0,0)"/>
<path style="fill:none;stroke-width:0.8;stroke-linecap:square;stroke-linejoin:round;stroke:rgb(80.000001%,53.333336%,53.333336%);stroke-opacity:1;stroke-miterlimit:4;" d="M 102.413438 85.00875 L 102.413438 82.718437 " transform="matrix(4.166667,0,0,4.166667,0,0)"/>
<path style="fill:none;stroke-width:0.8;stroke-linecap:square;stroke-linejoin:round;stroke:rgb(80.000001%,53.333336%,53.333336%);stroke-opacity:1;stroke-miterlimit:4;" d="M 111.492188 78.879375 L 111.492188 80.479687 " transform="matrix(4.166667,0,0,4.166667,0,0)"/>
<path style="fill:none;stroke-width:0.8;stroke-linecap:square;stroke-linejoin:round;stroke:rgb(80.000001%,53.333336%,53.333336%);stroke-opacity:1;stroke-miterlimit:4;" d="M 116.244375 81.238125 L 116.244375 79.307812 " transform="matrix(4.166667,0,0,4.166667,0,0)"/>
<path style="fill:none;stroke-width:0.8;stroke-linecap:square;stroke-linejoin:round;stroke:rgb(80.000001%,53.333336%,53.333336%);stroke-opacity:1;stroke-miterlimit:4;" d="M 122.94375 80.796562 L 122.94375 77.655 " transform="matrix(4.166667,0,0,4.166667,0,0)"/>
<path style="fill:none;stroke-width:0.8;stroke-linecap:square;stroke-linejoin:round;stroke:rgb(80.000001%,53.333336%,53.333336%);stroke-opacity:1;stroke-miterlimit:4;" d="M 131.695312 78.2475 L 131.695312 75.496875 " transform="matrix(4.166667,0,0,4.166667,0,0)"/>
<path style="fill:none;stroke-width:0.8;stroke-linecap:square;stroke-linejoin:round;stroke:rgb(80.000001%,53.333336%,53.333336%);stroke-opacity:1;stroke-miterlimit:4;" d="M 132.632812 76.9275 L 132.632812 75.265312 " transform="matrix(4.166667,0,0,4.166667,0,0)"/>
<path style="fill:none;stroke-width:0.8;stroke-linecap:square;stroke-linejoin:round;stroke:rgb(80.000001%,53.333336%,53.333336%);stroke-opacity:1;stroke-miterlimit:4;" d="M 139.184062 73.962187 L 139.184062 73.65 " transform="matrix(4.166667,0,0,4.166667,0,0)"/>
<path style="fill:none;stroke-width:0.8;stroke-linecap:square;stroke-linejoin:round;stroke:rgb(80.000001%,53.333336%,53.333336%);stroke-opacity:1;stroke-miterlimit:4;" d="M 145.199062 79.201875 L 145.199062 72.165937 " transform="matrix(4.166667,0,0,4.166667,0,0)"/>
<path style="fill:none;stroke-width:0.8;stroke-linecap:square;stroke-linejoin:round;stroke:rgb(80.000001%,53.333336%,53.333336%);stroke-opacity:1;stroke-miterlimit:4;" d="M 156.883125 65.144063 L 156.883125 69.285 " transform="matrix(4.166667,0,0,4.166667,0,0)"/>
<path style="fill:none;stroke-width:0.8;stroke-linecap:square;stroke-linejoin:round;stroke:rgb(80.000001%,53.333336%,53.333336%);stroke-opacity:1;stroke-miterlimit:4;" d="M 162.97875 66.456563 L 162.97875 67.78125 " transform="matrix(4.166667,0,0,4.166667,0,0)"/>
<path style="fill:none;stroke-width:0.8;stroke-linecap:square;stroke-linejoin:round;stroke:rgb(80.000001%,53.333336%,53.333336%);stroke-opacity:1;stroke-miterlimit:4;" d="M 170.018438 79.510312 L 170.018438 66.045 " transform="matrix(4.166667,0,0,4.166667,0,0)"/>
<path style="fill:none;stroke-width:0.8;stroke-linecap:square;stroke-linejoin:round;stroke:rgb(80.000001%,53.333336%,53.333336%);stroke-opacity:1;stroke-miterlimit:4;" d="M 177.165 55.14375 L 177.165 64.2825 " transform="matrix(4.166667,0,0,4.166667,0,0)"/>
<path style="fill:none;stroke-width:0.8;stroke-linecap:square;stroke-linejoin:round;stroke:rgb(80.000001%,53.333336%,53.333336%);stroke-opacity:1;stroke-miterlimit:4;" d="M 182.455312 50.061563 L 182.455312 62.978437 " transform="matrix(4.166667,0,0,4.166667,0,0)"/>
<path style="fill:none;stroke-width:0.8;stroke-linecap:square;stroke-linejoin:round;stroke:rgb(80.000001%,53.333336%,53.333336%);stroke-opacity:1;stroke-miterlimit:4;" d="M 186.724687 54.874688 L 186.724687 61.924687 " transform="matrix(4.166667,0,0,4.166667,0,0)"/>
<path style="fill:none;stroke-width:0.8;stroke-linecap:square;stroke-linejoin:round;stroke:rgb(80.000001%,53.333336%,53.333336%);stroke-opacity:1;stroke-miterlimit:4;" d="M 195.22875 65.475 L 195.22875 59.8275 " transform="matrix(4.166667,0,0,4.166667,0,0)"/>
<path style="fill:none;stroke-width:0.8;stroke-linecap:square;stroke-linejoin:round;stroke:rgb(80.000001%,53.333336%,53.333336%);stroke-opacity:1;stroke-miterlimit:4;" d="M 197.405625 73.8525 L 197.405625 59.29125 " transform="matrix(4.166667,0,0,4.166667,0,0)"/>
<path style="fill:none;stroke-width:0.8;stroke-linecap:square;stroke-linejoin:round;stroke:rgb(80.000001%,53.333336%,53.333336%);stroke-opacity:1;stroke-miterlimit:4;" d="M 207.215625 50.397188 L 207.215625 56.871562 " transform="matrix(4.166667,0,0,4.166667,0,0)"/>
<path style="fill:none;stroke-width:0.8;stroke-linecap:square;stroke-linejoin:round;stroke:rgb(80.000001%,53.333336%,53.333336%);stroke-opacity:1;stroke-miterlimit:4;" d="M 210.46125 65.616563 L 210.46125 56.070937 " transform="matrix(4.166667,0,0,4.166667,0,0)"/>
<path style="fill:none;stroke-width:0.8;stroke-linecap:square;stroke-linejoin:round;stroke:rgb(80.000001%,53.333336%,53.333336%);stroke-opacity:1;stroke-miterlimit:4;" d="M 222.074062 44.341875 L 222.074062 53.206875 " transform="matrix(4.166667,0,0,4.166667,0,0)"/>
<path style="fill:none;stroke-width:0.8;stroke-linecap:square;stroke-linejoin:round;stroke:rgb(80.000001%,53.333336%,53.333336%);stroke-opacity:1;stroke-miterlimit:4;" d="M 225.795 56.040937 L 225.795 52.289062 " transform="matrix(4.166667,0,0,4.166667,0,0)"/>
<path style="fill:none;stroke-width:0.8;stroke-linecap:square;stroke-linejoin:round;stroke:rgb(80.000001%,53.333336%,53.333336%);stroke-opacity:1;stroke-miterlimit:4;" d="M 231.550312 44.877187 L 231.550312 50.869687 " transform="matrix(4.166667,0,0,4.166667,0,0)"/>
<path style="fill:none;stroke-width:0.8;stroke-linecap:square;stroke-linejoin:round;stroke:rgb(80.000001%,53.333336%,53.333336%);stroke-opacity:1;stroke-miterlimit:4;" d="M 237.03 51.99 L 237.03 49.51875 " transform="matrix(4.166667,0,0,4.166667,0,0)"/>
<path style="fill:none;stroke-width:0.8;stroke-linecap:square;stroke-linejoin:round;stroke:rgb(80.000001%,53.333336%,53.333336%);stroke-opacity:1;stroke-miterlimit:4;" d="M 246.762187 44.944688 L 246.762187 47.117812 " transform="matrix(4.166667,0,0,4.166667,0,0)"/>
<path style="fill:none;stroke-width:0.8;stroke-linecap:square;stroke-linejoin:round;stroke:rgb(80.000001%,53.333336%,53.333336%);stroke-opacity:1;stroke-miterlimit:4;" d="M 251.158125 54.5775 L 251.158125 46.034062 " transform="matrix(4.166667,0,0,4.166667,0,0)"/>
<path style="fill:none;stroke-width:0.8;stroke-linecap:square;stroke-linejoin:round;stroke:rgb(80.000001%,53.333336%,53.333336%);stroke-opacity:1;stroke-miterlimit:4;" d="M 258.329062 24.981562 L 258.329062 44.265 " transform="matrix(4.166667,0,0,4.166667,0,0)"/>
<path style="fill:none;stroke-width:0.8;stroke-linecap:square;stroke-linejoin:round;stroke:rgb(80.000001%,53.333336%,53.333336%);stroke-opacity:1;stroke-miterlimit:4;" d="M 261.2325 51.170625 L 261.2325 43.549687 " transform="matrix(4.166667,0,0,4.166667,0,0)"/>
<path style="fill:none;stroke-width:0.8;stroke-linecap:square;stroke-linejoin:round;stroke:rgb(80.000001%,53.333336%,53.333336%);stroke-opacity:1;stroke-miterlimit:4;" d="M 271.540312 44.709375 L 271.540312 41.007188 " transform="matrix(4.166667,0,0,4.166667,0,0)"/>
<g clip-path="url(#clip1)" clip-rule="nonzero">
<path style="fill:none;stroke-width:0.8;stroke-linecap:square;stroke-linejoin:round;stroke:rgb(69.01961%,69.01961%,69.01961%);stroke-opacity:1;stroke-miterlimit:4;" d="M 41.920313 107.620312 L 41.920313 16.56 " transform="matrix(4.166667,0,0,4.166667,0,0)"/>
</g>
<path style="fill:none;stroke-width:0.8;stroke-linecap:butt;stroke-linejoin:round;stroke:rgb(0%,0%,0%);stroke-opacity:1;stroke-miterlimit:4;" d="M 0.000314331 0.000309753 L 0.000314331 3.499997 " transform="matrix(4.166667,0,0,4.166667,174.666659,448.416678)"/>
<path style=" stroke:none;fill-rule:nonzero;fill:rgb(0%,0%,0%);fill-opacity:1;" d="M 174.652344 481.574219 C 172.539062 481.574219 170.949219 482.617188 169.882812 484.699219 C 168.816406 486.777344 168.285156 489.90625 168.285156 494.085938 C 168.285156 498.25 168.816406 501.371094 169.882812 503.457031 C 170.949219 505.539062 172.539062 506.582031 174.652344 506.582031 C 176.785156 506.582031 178.382812 505.539062 179.445312 503.457031 C 180.511719 501.371094 181.046875 498.25 181.046875 494.085938 C 181.046875 489.90625 180.511719 486.777344 179.445312 484.699219 C 178.382812 482.617188 176.785156 481.574219 174.652344 481.574219 Z M 174.652344 478.320312 C 178.0625 478.320312 180.664062 479.667969 182.460938 482.363281 C 184.257812 485.054688 185.15625 488.960938 185.15625 494.085938 C 185.15625 499.199219 184.257812 503.105469 182.460938 505.800781 C 180.664062 508.492188 178.0625 509.835938 174.652344 509.835938 C 171.25 509.835938 168.652344 508.492188 166.855469 505.800781 C 165.058594 503.105469 164.160156 499.199219 164.160156 494.085938 C 164.160156 488.960938 165.058594 485.054688 166.855469 482.363281 C 168.652344 479.667969 171.25 478.320312 174.652344 478.320312 Z M 174.652344 478.320312 "/>
<g clip-path="url(#clip2)" clip-rule="nonzero">
<path style="fill:none;stroke-width:0.8;stroke-linecap:square;stroke-linejoin:round;stroke:rgb(69.01961%,69.01961%,69.01961%);stroke-opacity:1;stroke-miterlimit:4;" d="M 80.600625 107.620312 L 80.600625 16.56 " transform="matrix(4.166667,0,0,4.166667,0,0)"/>
</g>
<path style="fill:none;stroke-width:0.8;stroke-linecap:butt;stroke-linejoin:round;stroke:rgb(0%,0%,0%);stroke-opacity:1;stroke-miterlimit:4;" d="M -0.000205078 0.000309753 L -0.000205078 3.499997 " transform="matrix(4.166667,0,0,4.166667,335.836792,448.416678)"/>
<path style=" stroke:none;fill-rule:nonzero;fill:rgb(0%,0%,0%);fill-opacity:1;" d="M 327.75 505.785156 L 334.464844 505.785156 L 334.464844 482.609375 L 327.160156 484.074219 L 327.160156 480.332031 L 334.425781 478.867188 L 338.53125 478.867188 L 338.53125 505.785156 L 345.246094 505.785156 L 345.246094 509.242188 L 327.75 509.242188 Z M 327.75 505.785156 "/>
<g clip-path="url(#clip3)" clip-rule="nonzero">
<path style="fill:none;stroke-width:0.8;stroke-linecap:square;stroke-linejoin:round;stroke:rgb(69.01961%,69.01961%,69.01961%);stroke-opacity:1;stroke-miterlimit:4;" d="M 119.281875 107.620312 L 119.281875 16.56 " transform="matrix(4.166667,0,0,4.166667,0,0)"/>
</g>
<path style="fill:none;stroke-width:0.8;stroke-linecap:butt;stroke-linejoin:round;stroke:rgb(0%,0%,0%);stroke-opacity:1;stroke-miterlimit:4;" d="M 0.000205383 0.000309753 L 0.000205383 3.499997 " transform="matrix(4.166667,0,0,4.166667,497.006957,448.416678)"/>
<path style=" stroke:none;fill-rule:nonzero;fill:rgb(0%,0%,0%);fill-opacity:1;" d="M 491.746094 505.785156 L 506.089844 505.785156 L 506.089844 509.242188 L 486.804688 509.242188 L 486.804688 505.785156 C 488.363281 504.171875 490.488281 502.007812 493.179688 499.289062 C 495.875 496.566406 497.566406 494.8125 498.257812 494.023438 C 499.570312 492.546875 500.488281 491.296875 501.011719 490.273438 C 501.535156 489.246094 501.796875 488.242188 501.796875 487.25 C 501.796875 485.636719 501.230469 484.320312 500.097656 483.304688 C 498.964844 482.285156 497.492188 481.777344 495.671875 481.777344 C 494.382812 481.777344 493.023438 482 491.589844 482.445312 C 490.164062 482.894531 488.632812 483.574219 487.007812 484.484375 L 487.007812 480.332031 C 488.660156 479.667969 490.207031 479.164062 491.640625 478.828125 C 493.082031 478.488281 494.402344 478.320312 495.59375 478.320312 C 498.742188 478.320312 501.25 479.105469 503.121094 480.683594 C 504.992188 482.253906 505.925781 484.355469 505.925781 486.984375 C 505.925781 488.234375 505.691406 489.417969 505.222656 490.539062 C 504.757812 491.65625 503.90625 492.972656 502.671875 494.492188 C 502.332031 494.886719 501.253906 496.023438 499.433594 497.902344 C 497.621094 499.78125 495.058594 502.410156 491.746094 505.785156 Z M 491.746094 505.785156 "/>
<g clip-path="url(#clip4)" clip-rule="nonzero">
<path style="fill:none;stroke-width:0.8;stroke-linecap:square;stroke-linejoin:round;stroke:rgb(69.01961%,69.01961%,69.01961%);stroke-opacity:1;stroke-miterlimit:4;" d="M 157.962187 107.620312 L 157.962187 16.56 " transform="matrix(4.166667,0,0,4.166667,0,0)"/>
</g>
<path style="fill:none;stroke-width:0.8;stroke-linecap:butt;stroke-linejoin:round;stroke:rgb(0%,0%,0%);stroke-opacity:1;stroke-miterlimit:4;" d="M -0.000306396 0.000309753 L -0.000306396 3.499997 " transform="matrix(4.166667,0,0,4.166667,658.177058,448.416678)"/>
<path style=" stroke:none;fill-rule:nonzero;fill:rgb(0%,0%,0%);fill-opacity:1;" d="M 661.828125 492.863281 C 663.796875 493.285156 665.328125 494.160156 666.433594 495.492188 C 667.539062 496.820312 668.09375 498.460938 668.09375 500.414062 C 668.09375 503.410156 667.0625 505.730469 665 507.375 C 662.9375 509.015625 660.007812 509.835938 656.210938 509.835938 C 654.9375 509.835938 653.628906 509.710938 652.277344 509.457031 C 650.929688 509.207031 649.535156 508.828125 648.097656 508.324219 L 648.097656 504.359375 C 649.234375 505.023438 650.480469 505.527344 651.835938 505.863281 C 653.195312 506.203125 654.613281 506.371094 656.09375 506.371094 C 658.667969 506.371094 660.628906 505.863281 661.980469 504.847656 C 663.328125 503.832031 664.003906 502.355469 664.003906 500.414062 C 664.003906 498.621094 663.375 497.222656 662.121094 496.214844 C 660.867188 495.203125 659.125 494.699219 656.886719 494.699219 L 653.347656 494.699219 L 653.347656 491.320312 L 657.050781 491.320312 C 659.070312 491.320312 660.613281 490.917969 661.6875 490.109375 C 662.757812 489.300781 663.292969 488.140625 663.292969 486.621094 C 663.292969 485.0625 662.742188 483.867188 661.632812 483.03125 C 660.53125 482.195312 658.949219 481.777344 656.886719 481.777344 C 655.757812 481.777344 654.550781 481.898438 653.261719 482.148438 C 651.972656 482.390625 650.554688 482.769531 649.011719 483.28125 L 649.011719 479.621094 C 650.574219 479.1875 652.035156 478.863281 653.398438 478.644531 C 654.761719 478.425781 656.046875 478.320312 657.253906 478.320312 C 660.375 478.320312 662.839844 479.027344 664.65625 480.449219 C 666.472656 481.863281 667.382812 483.777344 667.382812 486.191406 C 667.382812 487.875 666.902344 489.296875 665.9375 490.453125 C 664.972656 491.613281 663.605469 492.417969 661.828125 492.863281 Z M 661.828125 492.863281 "/>
<g clip-path="url(#clip5)" clip-rule="nonzero">
<path style="fill:none;stroke-width:0.8;stroke-linecap:square;stroke-linejoin:round;stroke:rgb(69.01961%,69.01961%,69.01961%);stroke-opacity:1;stroke-miterlimit:4;" d="M 196.643438 107.620312 L 196.643438 16.56 " transform="matrix(4.166667,0,0,4.166667,0,0)"/>
</g>
<path style="fill:none;stroke-width:0.8;stroke-linecap:butt;stroke-linejoin:round;stroke:rgb(0%,0%,0%);stroke-opacity:1;stroke-miterlimit:4;" d="M 0.000111694 0.000309753 L 0.000111694 3.499997 " transform="matrix(4.166667,0,0,4.166667,819.347191,448.416678)"/>
<path style=" stroke:none;fill-rule:nonzero;fill:rgb(0%,0%,0%);fill-opacity:1;" d="M 821.839844 482.445312 L 811.464844 498.664062 L 821.839844 498.664062 Z M 820.761719 478.867188 L 825.929688 478.867188 L 825.929688 498.664062 L 830.265625 498.664062 L 830.265625 502.082031 L 825.929688 502.082031 L 825.929688 509.242188 L 821.839844 509.242188 L 821.839844 502.082031 L 808.128906 502.082031 L 808.128906 498.117188 Z M 820.761719 478.867188 "/>
<g clip-path="url(#clip6)" clip-rule="nonzero">
<path style="fill:none;stroke-width:0.8;stroke-linecap:square;stroke-linejoin:round;stroke:rgb(69.01961%,69.01961%,69.01961%);stroke-opacity:1;stroke-miterlimit:4;" d="M 235.32375 107.620312 L 235.32375 16.56 " transform="matrix(4.166667,0,0,4.166667,0,0)"/>
</g>
<path style="fill:none;stroke-width:0.8;stroke-linecap:butt;stroke-linejoin:round;stroke:rgb(0%,0%,0%);stroke-opacity:1;stroke-miterlimit:4;" d="M -0.000422974 0.000309753 L -0.000422974 3.499997 " transform="matrix(4.166667,0,0,4.166667,980.517387,448.416678)"/>
<path style=" stroke:none;fill-rule:nonzero;fill:rgb(0%,0%,0%);fill-opacity:1;" d="M 971.761719 478.867188 L 987.894531 478.867188 L 987.894531 482.328125 L 975.523438 482.328125 L 975.523438 489.769531 C 976.117188 489.566406 976.714844 489.414062 977.308594 489.316406 C 977.90625 489.214844 978.503906 489.164062 979.105469 489.164062 C 982.496094 489.164062 985.179688 490.09375 987.15625 491.953125 C 989.140625 493.808594 990.132812 496.324219 990.132812 499.496094 C 990.132812 502.765625 989.117188 505.308594 987.078125 507.121094 C 985.042969 508.929688 982.175781 509.835938 978.472656 509.835938 C 977.195312 509.835938 975.898438 509.726562 974.574219 509.511719 C 973.253906 509.292969 971.890625 508.96875 970.476562 508.535156 L 970.476562 504.398438 C 971.699219 505.0625 972.957031 505.558594 974.261719 505.882812 C 975.5625 506.210938 976.9375 506.371094 978.386719 506.371094 C 980.738281 506.371094 982.59375 505.757812 983.960938 504.523438 C 985.332031 503.289062 986.019531 501.617188 986.019531 499.496094 C 986.019531 497.382812 985.332031 495.710938 983.960938 494.476562 C 982.59375 493.242188 980.738281 492.621094 978.386719 492.621094 C 977.289062 492.621094 976.195312 492.742188 975.101562 492.988281 C 974.011719 493.230469 972.898438 493.609375 971.761719 494.125 Z M 971.761719 478.867188 "/>
<g clip-path="url(#clip7)" clip-rule="nonzero">
<path style="fill:none;stroke-width:0.8;stroke-linecap:square;stroke-linejoin:round;stroke:rgb(69.01961%,69.01961%,69.01961%);stroke-opacity:1;stroke-miterlimit:4;" d="M 274.005 107.620312 L 274.005 16.56 " transform="matrix(4.166667,0,0,4.166667,0,0)"/>
</g>
<path style="fill:none;stroke-width:0.8;stroke-linecap:butt;stroke-linejoin:round;stroke:rgb(0%,0%,0%);stroke-opacity:1;stroke-miterlimit:4;" d="M -0.00000488281 0.000309753 L -0.00000488281 3.499997 " transform="matrix(4.166667,0,0,4.166667,1141.68752,448.416678)"/>
<path style=" stroke:none;fill-rule:nonzero;fill:rgb(0%,0%,0%);fill-opacity:1;" d="M 1142.1875 492.421875 C 1140.34375 492.421875 1138.882812 493.050781 1137.800781 494.316406 C 1136.722656 495.574219 1136.1875 497.300781 1136.1875 499.496094 C 1136.1875 501.679688 1136.722656 503.40625 1137.800781 504.679688 C 1138.882812 505.945312 1140.34375 506.582031 1142.1875 506.582031 C 1144.035156 506.582031 1145.492188 505.945312 1146.570312 504.679688 C 1147.648438 503.40625 1148.183594 501.679688 1148.183594 499.496094 C 1148.183594 497.300781 1147.648438 495.574219 1146.570312 494.316406 C 1145.492188 493.050781 1144.035156 492.421875 1142.1875 492.421875 Z M 1150.347656 479.535156 L 1150.347656 483.28125 C 1149.3125 482.792969 1148.273438 482.421875 1147.222656 482.167969 C 1146.171875 481.90625 1145.128906 481.777344 1144.097656 481.777344 C 1141.382812 481.777344 1139.3125 482.691406 1137.878906 484.523438 C 1136.449219 486.355469 1135.636719 489.121094 1135.429688 492.824219 C 1136.230469 491.644531 1137.230469 490.738281 1138.4375 490.109375 C 1139.648438 489.480469 1140.980469 489.164062 1142.429688 489.164062 C 1145.480469 489.164062 1147.890625 490.09375 1149.664062 491.945312 C 1151.433594 493.792969 1152.320312 496.3125 1152.320312 499.496094 C 1152.320312 502.617188 1151.398438 505.121094 1149.550781 507.011719 C 1147.707031 508.894531 1145.253906 509.835938 1142.1875 509.835938 C 1138.671875 509.835938 1135.988281 508.492188 1134.128906 505.800781 C 1132.269531 503.105469 1131.34375 499.199219 1131.34375 494.085938 C 1131.34375 489.285156 1132.480469 485.457031 1134.761719 482.601562 C 1137.039062 479.746094 1140.097656 478.320312 1143.933594 478.320312 C 1144.964844 478.320312 1146.007812 478.421875 1147.058594 478.625 C 1148.109375 478.828125 1149.203125 479.132812 1150.347656 479.535156 Z M 1150.347656 479.535156 "/>
<g clip-path="url(#clip8)" clip-rule="nonzero">
<path style="fill:none;stroke-width:0.8;stroke-linecap:square;stroke-linejoin:round;stroke:rgb(69.01961%,69.01961%,69.01961%);stroke-opacity:1;stroke-miterlimit:4;" d="M 41.920313 107.620312 L 274.005 107.620312 " transform="matrix(4.166667,0,0,4.166667,0,0)"/>
</g>
<path style="fill:none;stroke-width:0.8;stroke-linecap:butt;stroke-linejoin:round;stroke:rgb(0%,0%,0%);stroke-opacity:1;stroke-miterlimit:4;" d="M 0.000314331 0.000309753 L -3.500311 0.000309753 " transform="matrix(4.166667,0,0,4.166667,174.666659,448.416678)"/>
<path style=" stroke:none;fill-rule:nonzero;fill:rgb(0%,0%,0%);fill-opacity:1;" d="M 132.230469 436.578125 C 130.117188 436.578125 128.527344 437.621094 127.460938 439.703125 C 126.394531 441.78125 125.863281 444.910156 125.863281 449.089844 C 125.863281 453.253906 126.394531 456.375 127.460938 458.460938 C 128.527344 460.542969 130.117188 461.585938 132.230469 461.585938 C 134.363281 461.585938 135.960938 460.542969 137.023438 458.460938 C 138.089844 456.375 138.625 453.253906 138.625 449.089844 C 138.625 444.910156 138.089844 441.78125 137.023438 439.703125 C 135.960938 437.621094 134.363281 436.578125 132.230469 436.578125 Z M 132.230469 433.324219 C 135.640625 433.324219 138.242188 434.671875 140.039062 437.367188 C 141.835938 440.054688 142.734375 443.964844 142.734375 449.089844 C 142.734375 454.203125 141.835938 458.109375 140.039062 460.804688 C 138.242188 463.492188 135.640625 464.839844 132.230469 464.839844 C 128.828125 464.839844 126.230469 463.492188 124.433594 460.804688 C 122.636719 458.109375 121.738281 454.203125 121.738281 449.089844 C 121.738281 443.964844 122.636719 440.054688 124.433594 437.367188 C 126.230469 434.671875 128.828125 433.324219 132.230469 433.324219 Z M 132.230469 433.324219 "/>
<g clip-path="url(#clip9)" clip-rule="nonzero">
<path style="fill:none;stroke-width:0.8;stroke-linecap:square;stroke-linejoin:round;stroke:rgb(69.01961%,69.01961%,69.01961%);stroke-opacity:1;stroke-miterlimit:4;" d="M 41.920313 77.266875 L 274.005 77.266875 " transform="matrix(4.166667,0,0,4.166667,0,0)"/>
</g>
<path style="fill:none;stroke-width:0.8;stroke-linecap:butt;stroke-linejoin:round;stroke:rgb(0%,0%,0%);stroke-opacity:1;stroke-miterlimit:4;" d="M 0.000314331 0.000204773 L -3.500311 0.000204773 " transform="matrix(4.166667,0,0,4.166667,174.666659,321.944459)"/>
<path style=" stroke:none;fill-rule:nonzero;fill:rgb(0%,0%,0%);fill-opacity:1;" d="M 124.160156 334.316406 L 130.871094 334.316406 L 130.871094 311.140625 L 123.566406 312.605469 L 123.566406 308.863281 L 130.832031 307.398438 L 134.941406 307.398438 L 134.941406 334.316406 L 141.652344 334.316406 L 141.652344 337.773438 L 124.160156 337.773438 Z M 124.160156 334.316406 "/>
<g clip-path="url(#clip10)" clip-rule="nonzero">
<path style="fill:none;stroke-width:0.8;stroke-linecap:square;stroke-linejoin:round;stroke:rgb(69.01961%,69.01961%,69.01961%);stroke-opacity:1;stroke-miterlimit:4;" d="M 41.920313 46.913438 L 274.005 46.913438 " transform="matrix(4.166667,0,0,4.166667,0,0)"/>
</g>
<path style="fill:none;stroke-width:0.8;stroke-linecap:butt;stroke-linejoin:round;stroke:rgb(0%,0%,0%);stroke-opacity:1;stroke-miterlimit:4;" d="M 0.000314331 0.000103607 L -3.500311 0.000103607 " transform="matrix(4.166667,0,0,4.166667,174.666659,195.472225)"/>
<path style=" stroke:none;fill-rule:nonzero;fill:rgb(0%,0%,0%);fill-opacity:1;" d="M 126.984375 207.84375 L 141.328125 207.84375 L 141.328125 211.300781 L 122.042969 211.300781 L 122.042969 207.84375 C 123.601562 206.230469 125.726562 204.066406 128.417969 201.347656 C 131.113281 198.625 132.804688 196.871094 133.496094 196.082031 C 134.808594 194.605469 135.726562 193.355469 136.25 192.332031 C 136.773438 191.304688 137.035156 190.300781 137.035156 189.308594 C 137.035156 187.695312 136.46875 186.378906 135.335938 185.363281 C 134.203125 184.34375 132.730469 183.835938 130.910156 183.835938 C 129.621094 183.835938 128.261719 184.058594 126.828125 184.503906 C 125.398438 184.953125 123.871094 185.632812 122.246094 186.542969 L 122.246094 182.390625 C 123.898438 181.726562 125.445312 181.222656 126.878906 180.886719 C 128.320312 180.546875 129.636719 180.378906 130.832031 180.378906 C 133.980469 180.378906 136.488281 181.164062 138.359375 182.742188 C 140.230469 184.3125 141.164062 186.414062 141.164062 189.042969 C 141.164062 190.292969 140.929688 191.476562 140.460938 192.597656 C 139.996094 193.714844 139.144531 195.03125 137.910156 196.550781 C 137.570312 196.945312 136.492188 198.082031 134.671875 199.960938 C 132.859375 201.839844 130.296875 204.46875 126.984375 207.84375 Z M 126.984375 207.84375 "/>
<g clip-path="url(#clip11)" clip-rule="nonzero">
<path style="fill:none;stroke-width:0.8;stroke-linecap:square;stroke-linejoin:round;stroke:rgb(69.01961%,69.01961%,69.01961%);stroke-opacity:1;stroke-miterlimit:4;" d="M 41.920313 16.56 L 274.005 16.56 " transform="matrix(4.166667,0,0,4.166667,0,0)"/>
</g>
<path style="fill:none;stroke-width:0.8;stroke-linecap:butt;stroke-linejoin:round;stroke:rgb(0%,0%,0%);stroke-opacity:1;stroke-miterlimit:4;" d="M 0.000314331 0.000000534058 L -3.500311 0.000000534058 " transform="matrix(4.166667,0,0,4.166667,174.666659,68.999998)"/>
<path style=" stroke:none;fill-rule:nonzero;fill:rgb(0%,0%,0%);fill-opacity:1;" d="M 135.898438 68.449219 C 137.863281 68.871094 139.398438 69.746094 140.5 71.078125 C 141.605469 72.40625 142.160156 74.046875 142.160156 76 C 142.160156 78.996094 141.128906 81.316406 139.066406 82.960938 C 137.007812 84.601562 134.078125 85.421875 130.277344 85.421875 C 129.007812 85.421875 127.695312 85.296875 126.347656 85.042969 C 124.996094 84.792969 123.601562 84.414062 122.167969 83.910156 L 122.167969 79.945312 C 123.304688 80.609375 124.550781 81.113281 125.902344 81.449219 C 127.261719 81.789062 128.679688 81.957031 130.160156 81.957031 C 132.734375 81.957031 134.695312 81.449219 136.046875 80.433594 C 137.398438 79.417969 138.070312 77.941406 138.070312 76 C 138.070312 74.210938 137.445312 72.808594 136.191406 71.800781 C 134.9375 70.792969 133.191406 70.285156 130.957031 70.285156 L 127.414062 70.285156 L 127.414062 66.90625 L 131.117188 66.90625 C 133.136719 66.90625 134.683594 66.503906 135.753906 65.695312 C 136.824219 64.886719 137.363281 63.726562 137.363281 62.207031 C 137.363281 60.648438 136.808594 59.453125 135.703125 58.617188 C 134.597656 57.78125 133.015625 57.363281 130.957031 57.363281 C 129.828125 57.363281 128.617188 57.484375 127.328125 57.734375 C 126.039062 57.976562 124.625 58.355469 123.078125 58.867188 L 123.078125 55.207031 C 124.640625 54.773438 126.101562 54.449219 127.464844 54.230469 C 128.828125 54.015625 130.113281 53.90625 131.320312 53.90625 C 134.441406 53.90625 136.910156 54.613281 138.722656 56.035156 C 140.542969 57.449219 141.449219 59.363281 141.449219 61.777344 C 141.449219 63.460938 140.96875 64.882812 140.003906 66.039062 C 139.042969 67.199219 137.671875 68.003906 135.898438 68.449219 Z M 135.898438 68.449219 "/>
<g clip-path="url(#clip12)" clip-rule="nonzero">
<path style="fill:none;stroke-width:1.5;stroke-linecap:square;stroke-linejoin:round;stroke:rgb(66.666669%,13.333334%,13.333334%);stroke-opacity:1;stroke-miterlimit:4;" d="M 41.920313 97.637812 L 274.005 40.399687 " transform="matrix(4.166667,0,0,4.166667,0,0)"/>
</g>
<path style="fill:none;stroke-width:0.8;stroke-linecap:square;stroke-linejoin:miter;stroke:rgb(0%,0%,0%);stroke-opacity:1;stroke-miterlimit:4;" d="M 41.920313 107.620312 L 41.920313 16.56 " transform="matrix(4.166667,0,0,4.166667,0,0)"/>
<path style="fill:none;stroke-width:0.8;stroke-linecap:square;stroke-linejoin:miter;stroke:rgb(0%,0%,0%);stroke-opacity:1;stroke-miterlimit:4;" d="M 274.005 107.620312 L 274.005 16.56 " transform="matrix(4.166667,0,0,4.166667,0,0)"/>
<path style="fill:none;stroke-width:0.8;stroke-linecap:square;stroke-linejoin:miter;stroke:rgb(0%,0%,0%);stroke-opacity:1;stroke-miterlimit:4;" d="M 41.920313 107.620312 L 274.005 107.620312 " transform="matrix(4.166667,0,0,4.166667,0,0)"/>
<path style="fill:none;stroke-width:0.8;stroke-linecap:square;stroke-linejoin:miter;stroke:rgb(0%,0%,0%);stroke-opacity:1;stroke-miterlimit:4;" d="M 41.920313 16.56 L 274.005 16.56 " transform="matrix(4.166667,0,0,4.166667,0,0)"/>
<path style="fill-rule:nonzero;fill:rgb(0%,0%,0%);fill-opacity:1;stroke-width:1;stroke-linecap:butt;stroke-linejoin:round;stroke:rgb(0%,0%,0%);stroke-opacity:1;stroke-miterlimit:4;" d="M 0.000341949 1.581411 C 0.419404 1.581411 0.821592 1.414536 1.117842 1.118286 C 1.414092 0.821099 1.580967 0.418911 1.580967 -0.000151062 C 1.580967 -0.419214 1.414092 -0.821401 1.117842 -1.117651 C 0.821592 -1.414839 0.419404 -1.580776 0.000341949 -1.580776 C -0.419658 -1.580776 -0.821846 -1.414839 -1.118096 -1.117651 C -1.414346 -0.821401 -1.581221 -0.419214 -1.581221 -0.000151062 C -1.581221 0.418911 -1.414346 0.821099 -1.118096 1.118286 C -0.821846 1.414536 -0.419658 1.581411 0.000341949 1.581411 Z M 0.000341949 1.581411 " transform="matrix(4.166667,0,0,4.166667,189.408731,401.817036)"/>
<path style="fill-rule:nonzero;fill:rgb(0%,0%,0%);fill-opacity:1;stroke-width:1;stroke-linecap:butt;stroke-linejoin:round;stroke:rgb(0%,0%,0%);stroke-opacity:1;stroke-miterlimit:4;" d="M -0.000305786 1.580959 C 0.419694 1.580959 0.821882 1.414084 1.118132 1.117834 C 1.414382 0.821584 1.581257 0.419396 1.581257 0.000333862 C 1.581257 -0.419666 1.414382 -0.821854 1.118132 -1.118104 C 0.821882 -1.414354 0.419694 -1.581229 -0.000305786 -1.581229 C -0.419368 -1.581229 -0.821556 -1.414354 -1.117806 -1.118104 C -1.414993 -0.821854 -1.580931 -0.419666 -1.580931 0.000333862 C -1.580931 0.419396 -1.414993 0.821584 -1.117806 1.117834 C -0.821556 1.414084 -0.419368 1.580959 -0.000305786 1.580959 Z M -0.000305786 1.580959 " transform="matrix(4.166667,0,0,4.166667,220.739555,393.26814)"/>
<path style="fill-rule:nonzero;fill:rgb(0%,0%,0%);fill-opacity:1;stroke-width:1;stroke-linecap:butt;stroke-linejoin:round;stroke:rgb(0%,0%,0%);stroke-opacity:1;stroke-miterlimit:4;" d="M 0.000178833 1.580967 C 0.419241 1.580967 0.821429 1.414092 1.117679 1.117842 C 1.414866 0.821592 1.580804 0.419405 1.580804 0.000342102 C 1.580804 -0.419658 1.414866 -0.821845 1.117679 -1.118095 C 0.821429 -1.414345 0.419241 -1.58122 0.000178833 -1.58122 C -0.418884 -1.58122 -0.821071 -1.414345 -1.118259 -1.118095 C -1.414509 -0.821845 -1.581384 -0.419658 -1.581384 0.000342102 C -1.581384 0.419405 -1.414509 0.821592 -1.118259 1.117842 C -0.821071 1.414092 -0.418884 1.580967 0.000178833 1.580967 Z M 0.000178833 1.580967 " transform="matrix(4.166667,0,0,4.166667,244.581286,388.838418)"/>
<path style="fill-rule:nonzero;fill:rgb(0%,0%,0%);fill-opacity:1;stroke-width:1;stroke-linecap:butt;stroke-linejoin:round;stroke:rgb(0%,0%,0%);stroke-opacity:1;stroke-miterlimit:4;" d="M -0.000357971 1.580722 C 0.419642 1.580722 0.82183 1.414784 1.11808 1.117597 C 1.41433 0.821347 1.581205 0.419159 1.581205 0.0000967407 C 1.581205 -0.418966 1.41433 -0.821153 1.11808 -1.118341 C 0.82183 -1.414591 0.419642 -1.581466 -0.000357971 -1.581466 C -0.41942 -1.581466 -0.821608 -1.414591 -1.117858 -1.118341 C -1.414108 -0.821153 -1.580983 -0.418966 -1.580983 0.0000967407 C -1.580983 0.419159 -1.414108 0.821347 -1.117858 1.117597 C -0.821608 1.414784 -0.41942 1.580722 -0.000357971 1.580722 Z M -0.000357971 1.580722 " transform="matrix(4.166667,0,0,4.166667,269.88821,378.753503)"/>
<path style="fill-rule:nonzero;fill:rgb(0%,0%,0%);fill-opacity:1;stroke-width:1;stroke-linecap:butt;stroke-linejoin:round;stroke:rgb(0%,0%,0%);stroke-opacity:1;stroke-miterlimit:4;" d="M -0.000313416 1.580866 C 0.419687 1.580866 0.821874 1.414929 1.118124 1.117741 C 1.414374 0.821491 1.581249 0.419304 1.581249 0.000241394 C 1.581249 -0.419759 1.414374 -0.821946 1.118124 -1.118196 C 0.821874 -1.414446 0.419687 -1.581321 -0.000313416 -1.581321 C -0.419376 -1.581321 -0.821563 -1.414446 -1.117813 -1.118196 C -1.415001 -0.821946 -1.580938 -0.419759 -1.580938 0.000241394 C -1.580938 0.419304 -1.415001 0.821491 -1.117813 1.117741 C -0.821563 1.414929 -0.419376 1.580866 -0.000313416 1.580866 Z M -0.000313416 1.580866 " transform="matrix(4.166667,0,0,4.166667,293.493493,376.670869)"/>
<path style="fill-rule:nonzero;fill:rgb(0%,0%,0%);fill-opacity:1;stroke-width:1;stroke-linecap:butt;stroke-linejoin:round;stroke:rgb(0%,0%,0%);stroke-opacity:1;stroke-miterlimit:4;" d="M -0.000173035 1.580874 C 0.418889 1.580874 0.821077 1.414937 1.118264 1.117749 C 1.414514 0.821499 1.581389 0.419312 1.581389 0.000249023 C 1.581389 -0.419751 1.414514 -0.821938 1.118264 -1.118188 C 0.821077 -1.414438 0.418889 -1.581313 -0.000173035 -1.581313 C -0.419236 -1.581313 -0.821423 -1.414438 -1.117673 -1.118188 C -1.414861 -0.821938 -1.580798 -0.419751 -1.580798 0.000249023 C -1.580798 0.419312 -1.414861 0.821499 -1.117673 1.117749 C -0.821423 1.414937 -0.419236 1.580874 -0.000173035 1.580874 Z M -0.000173035 1.580874 " transform="matrix(4.166667,0,0,4.166667,326.32494,365.342712)"/>
<path style="fill-rule:nonzero;fill:rgb(0%,0%,0%);fill-opacity:1;stroke-width:1;stroke-linecap:butt;stroke-linejoin:round;stroke:rgb(0%,0%,0%);stroke-opacity:1;stroke-miterlimit:4;" d="M -0.0003125 1.58093 C 0.419687 1.58093 0.821875 1.414992 1.118125 1.117805 C 1.414375 0.821555 1.58125 0.419367 1.58125 0.000304871 C 1.58125 -0.419695 1.414375 -0.821883 1.118125 -1.118133 C 0.821875 -1.414383 0.419687 -1.581258 -0.0003125 -1.581258 C -0.419375 -1.581258 -0.821562 -1.414383 -1.117812 -1.118133 C -1.415 -0.821883 -1.580938 -0.419695 -1.580938 0.000304871 C -1.580938 0.419367 -1.415 0.821555 -1.117812 1.117805 C -0.821562 1.414992 -0.419375 1.58093 -0.0003125 1.58093 Z M -0.0003125 1.58093 " transform="matrix(4.166667,0,0,4.166667,347.591146,356.315136)"/>
<path style="fill-rule:nonzero;fill:rgb(0%,0%,0%);fill-opacity:1;stroke-width:1;stroke-linecap:butt;stroke-linejoin:round;stroke:rgb(0%,0%,0%);stroke-opacity:1;stroke-miterlimit:4;" d="M -0.000159912 1.580918 C 0.418903 1.580918 0.82109 1.41498 1.118278 1.117793 C 1.414528 0.821543 1.581403 0.419355 1.581403 0.000292664 C 1.581403 -0.419707 1.414528 -0.821895 1.118278 -1.118145 C 0.82109 -1.414395 0.418903 -1.58127 -0.000159912 -1.58127 C -0.419222 -1.58127 -0.82141 -1.414395 -1.11766 -1.118145 C -1.414847 -0.821895 -1.580785 -0.419707 -1.580785 0.000292664 C -1.580785 0.419355 -1.414847 0.821543 -1.11766 1.117793 C -0.82141 1.41498 -0.419222 1.580918 -0.000159912 1.580918 Z M -0.000159912 1.580918 " transform="matrix(4.166667,0,0,4.166667,386.65301,350.182374)"/>
<path style="fill-rule:nonzero;fill:rgb(0%,0%,0%);fill-opacity:1;stroke-width:1;stroke-linecap:butt;stroke-linejoin:round;stroke:rgb(0%,0%,0%);stroke-opacity:1;stroke-miterlimit:4;" d="M -0.000118103 1.581167 C 0.418944 1.581167 0.821132 1.414292 1.118319 1.118042 C 1.414569 0.821792 1.581444 0.419604 1.581444 -0.000395508 C 1.581444 -0.419458 1.414569 -0.821646 1.118319 -1.117896 C 0.821132 -1.414146 0.418944 -1.581021 -0.000118103 -1.581021 C -0.419181 -1.581021 -0.821368 -1.414146 -1.117618 -1.117896 C -1.414806 -0.821646 -1.580743 -0.419458 -1.580743 -0.000395508 C -1.580743 0.419604 -1.414806 0.821792 -1.117618 1.118042 C -0.821368 1.414292 -0.419181 1.581167 -0.000118103 1.581167 Z M -0.000118103 1.581167 " transform="matrix(4.166667,0,0,4.166667,415.445805,334.013367)"/>
<path style="fill-rule:nonzero;fill:rgb(0%,0%,0%);fill-opacity:1;stroke-width:1;stroke-linecap:butt;stroke-linejoin:round;stroke:rgb(0%,0%,0%);stroke-opacity:1;stroke-miterlimit:4;" d="M 0.000214233 1.581067 C 0.419277 1.581067 0.821464 1.414192 1.117714 1.117942 C 1.414902 0.821692 1.580839 0.419504 1.580839 0.000441589 C 1.580839 -0.419558 1.414902 -0.821746 1.117714 -1.117996 C 0.821464 -1.414246 0.419277 -1.581121 0.000214233 -1.581121 C -0.419786 -1.581121 -0.821973 -1.414246 -1.118223 -1.117996 C -1.414473 -0.821746 -1.581348 -0.419558 -1.581348 0.000441589 C -1.581348 0.419504 -1.414473 0.821692 -1.118223 1.117942 C -0.821973 1.414192 -0.419786 1.581067 0.000214233 1.581067 Z M 0.000214233 1.581067 " transform="matrix(4.166667,0,0,4.166667,426.721764,354.201285)"/>
<path style="fill-rule:nonzero;fill:rgb(0%,0%,0%);fill-opacity:1;stroke-width:1;stroke-linecap:butt;stroke-linejoin:round;stroke:rgb(0%,0%,0%);stroke-opacity:1;stroke-miterlimit:4;" d="M 0.000038147 1.580712 C 0.419101 1.580712 0.821288 1.414775 1.118476 1.117587 C 1.414726 0.821337 1.581601 0.41915 1.581601 0.0000872803 C 1.581601 -0.418975 1.414726 -0.821163 1.118476 -1.11835 C 0.821288 -1.4146 0.419101 -1.581475 0.000038147 -1.581475 C -0.419024 -1.581475 -0.821212 -1.4146 -1.118399 -1.11835 C -1.414649 -0.821163 -1.581524 -0.418975 -1.581524 0.0000872803 C -1.581524 0.41915 -1.414649 0.821337 -1.118399 1.117587 C -0.821212 1.414775 -0.419024 1.580712 0.000038147 1.580712 Z M 0.000038147 1.580712 " transform="matrix(4.166667,0,0,4.166667,464.550622,328.663699)"/>
<path style="fill-rule:nonzero;fill:rgb(0%,0%,0%);fill-opacity:1;stroke-width:1;stroke-linecap:butt;stroke-linejoin:round;stroke:rgb(0%,0%,0%);stroke-opacity:1;stroke-miterlimit:4;" d="M -0.000162354 1.58146 C 0.4189 1.58146 0.821088 1.414585 1.118275 1.118335 C 1.414525 0.821147 1.5814 0.41896 1.5814 -0.000102844 C 1.5814 -0.419165 1.414525 -0.821353 1.118275 -1.117603 C 0.821088 -1.41479 0.4189 -1.580728 -0.000162354 -1.580728 C -0.419225 -1.580728 -0.821412 -1.41479 -1.117662 -1.117603 C -1.41485 -0.821353 -1.580787 -0.419165 -1.580787 -0.000102844 C -1.580787 0.41896 -1.41485 0.821147 -1.117662 1.118335 C -0.821412 1.414585 -0.419225 1.58146 -0.000162354 1.58146 Z M -0.000162354 1.58146 " transform="matrix(4.166667,0,0,4.166667,484.352239,338.492616)"/>
<path style="fill-rule:nonzero;fill:rgb(0%,0%,0%);fill-opacity:1;stroke-width:1;stroke-linecap:butt;stroke-linejoin:round;stroke:rgb(0%,0%,0%);stroke-opacity:1;stroke-miterlimit:4;" d="M 0.00000915527 1.580694 C 0.419072 1.580694 0.821259 1.414756 1.118447 1.117569 C 1.414697 0.821319 1.581572 0.419131 1.581572 0.0000689697 C 1.581572 -0.418994 1.414697 -0.821181 1.118447 -1.118369 C 0.821259 -1.414619 0.419072 -1.581494 0.00000915527 -1.581494 C -0.419053 -1.581494 -0.821241 -1.414619 -1.118428 -1.118369 C -1.414678 -0.821181 -1.581553 -0.418994 -1.581553 0.0000689697 C -1.581553 0.419131 -1.414678 0.821319 -1.118428 1.117569 C -0.821241 1.414756 -0.419053 1.580694 0.00000915527 1.580694 Z M 0.00000915527 1.580694 " transform="matrix(4.166667,0,0,4.166667,512.265587,336.652056)"/>
<path style="fill-rule:nonzero;fill:rgb(0%,0%,0%);fill-opacity:1;stroke-width:1;stroke-linecap:butt;stroke-linejoin:round;stroke:rgb(0%,0%,0%);stroke-opacity:1;stroke-miterlimit:4;" d="M -0.000305176 1.581573 C 0.419695 1.581573 0.821882 1.414698 1.118132 1.118448 C 1.414382 0.82126 1.581257 0.419073 1.581257 0.0000100708 C 1.581257 -0.419052 1.414382 -0.82124 1.118132 -1.118427 C 0.821882 -1.414677 0.419695 -1.581552 -0.000305176 -1.581552 C -0.419368 -1.581552 -0.821555 -1.414677 -1.117805 -1.118427 C -1.414993 -0.82124 -1.58093 -0.419052 -1.58093 0.0000100708 C -1.58093 0.419073 -1.414993 0.82126 -1.117805 1.118448 C -0.821555 1.414698 -0.419368 1.581573 -0.000305176 1.581573 Z M -0.000305176 1.581573 " transform="matrix(4.166667,0,0,4.166667,548.73174,326.031208)"/>
<path style="fill-rule:nonzero;fill:rgb(0%,0%,0%);fill-opacity:1;stroke-width:1;stroke-linecap:butt;stroke-linejoin:round;stroke:rgb(0%,0%,0%);stroke-opacity:1;stroke-miterlimit:4;" d="M -0.000427246 1.581229 C 0.419573 1.581229 0.82176 1.414354 1.11801 1.118104 C 1.41426 0.821854 1.581135 0.419666 1.581135 -0.000333557 C 1.581135 -0.419396 1.41426 -0.821584 1.11801 -1.117834 C 0.82176 -1.414084 0.419573 -1.580959 -0.000427246 -1.580959 C -0.41949 -1.580959 -0.821677 -1.414084 -1.117927 -1.117834 C -1.414177 -0.821584 -1.581052 -0.419396 -1.581052 -0.000333557 C -1.581052 0.419666 -1.414177 0.821854 -1.117927 1.118104 C -0.821677 1.414354 -0.41949 1.581229 -0.000427246 1.581229 Z M -0.000427246 1.581229 " transform="matrix(4.166667,0,0,4.166667,552.638499,320.53264)"/>
<path style="fill-rule:nonzero;fill:rgb(0%,0%,0%);fill-opacity:1;stroke-width:1;stroke-linecap:butt;stroke-linejoin:round;stroke:rgb(0%,0%,0%);stroke-opacity:1;stroke-miterlimit:4;" d="M 0.000270386 1.58134 C 0.419333 1.58134 0.82152 1.414465 1.11777 1.118215 C 1.414958 0.821965 1.580895 0.419778 1.580895 -0.000222473 C 1.580895 -0.419285 1.414958 -0.821472 1.11777 -1.117722 C 0.82152 -1.41491 0.419333 -1.580847 0.000270386 -1.580847 C -0.41973 -1.580847 -0.821917 -1.41491 -1.118167 -1.117722 C -1.414417 -0.821472 -1.581292 -0.419285 -1.581292 -0.000222473 C -1.581292 0.419778 -1.414417 0.821965 -1.118167 1.118215 C -0.821917 1.414465 -0.41973 1.58134 0.000270386 1.58134 Z M 0.000270386 1.58134 " transform="matrix(4.166667,0,0,4.166667,579.932467,308.176708)"/>
<path style="fill-rule:nonzero;fill:rgb(0%,0%,0%);fill-opacity:1;stroke-width:1;stroke-linecap:butt;stroke-linejoin:round;stroke:rgb(0%,0%,0%);stroke-opacity:1;stroke-miterlimit:4;" d="M -0.000171509 1.58132 C 0.418891 1.58132 0.821078 1.414445 1.118266 1.118195 C 1.414516 0.821945 1.581391 0.419757 1.581391 -0.00024292 C 1.581391 -0.419305 1.414516 -0.821493 1.118266 -1.117743 C 0.821078 -1.41493 0.418891 -1.580868 -0.000171509 -1.580868 C -0.419234 -1.580868 -0.821422 -1.41493 -1.117672 -1.117743 C -1.414859 -0.821493 -1.580797 -0.419305 -1.580797 -0.00024292 C -1.580797 0.419757 -1.414859 0.821945 -1.117672 1.118195 C -0.821422 1.414445 -0.419234 1.58132 -0.000171509 1.58132 Z M -0.000171509 1.58132 " transform="matrix(4.166667,0,0,4.166667,604.996808,330.008825)"/>
<path style="fill-rule:nonzero;fill:rgb(0%,0%,0%);fill-opacity:1;stroke-width:1;stroke-linecap:butt;stroke-linejoin:round;stroke:rgb(0%,0%,0%);stroke-opacity:1;stroke-miterlimit:4;" d="M -0.00031311 1.581223 C 0.419687 1.581223 0.821874 1.414348 1.118124 1.118098 C 1.414374 0.821848 1.581249 0.419661 1.581249 -0.00033905 C 1.581249 -0.419402 1.414374 -0.821589 1.118124 -1.117839 C 0.821874 -1.414089 0.419687 -1.580964 -0.00031311 -1.580964 C -0.419376 -1.580964 -0.821563 -1.414089 -1.117813 -1.117839 C -1.415001 -0.821589 -1.580938 -0.419402 -1.580938 -0.00033905 C -1.580938 0.419661 -1.415001 0.821848 -1.117813 1.118098 C -0.821563 1.414348 -0.419376 1.581223 -0.00031311 1.581223 Z M -0.00031311 1.581223 " transform="matrix(4.166667,0,0,4.166667,653.680992,271.435006)"/>
<path style="fill-rule:nonzero;fill:rgb(0%,0%,0%);fill-opacity:1;stroke-width:1;stroke-linecap:butt;stroke-linejoin:round;stroke:rgb(0%,0%,0%);stroke-opacity:1;stroke-miterlimit:4;" d="M -0.000375977 1.581399 C 0.419624 1.581399 0.821812 1.414524 1.118062 1.118274 C 1.414312 0.821086 1.581187 0.418899 1.581187 -0.000163574 C 1.581187 -0.419226 1.414312 -0.821414 1.118062 -1.117664 C 0.821812 -1.414851 0.419624 -1.580789 -0.000375977 -1.580789 C -0.419438 -1.580789 -0.821626 -1.414851 -1.117876 -1.117664 C -1.414126 -0.821414 -1.581001 -0.419226 -1.581001 -0.000163574 C -1.581001 0.418899 -1.414126 0.821086 -1.117876 1.118274 C -0.821626 1.414524 -0.419438 1.581399 -0.000375977 1.581399 Z M -0.000375977 1.581399 " transform="matrix(4.166667,0,0,4.166667,679.079692,276.903025)"/>
<path style="fill-rule:nonzero;fill:rgb(0%,0%,0%);fill-opacity:1;stroke-width:1;stroke-linecap:butt;stroke-linejoin:round;stroke:rgb(0%,0%,0%);stroke-opacity:1;stroke-miterlimit:4;" d="M 0.000325317 1.581346 C 0.419388 1.581346 0.821575 1.414471 1.117825 1.118221 C 1.414075 0.821971 1.58095 0.419784 1.58095 -0.000216064 C 1.58095 -0.419279 1.414075 -0.821466 1.117825 -1.117716 C 0.821575 -1.414904 0.419388 -1.580841 0.000325317 -1.580841 C -0.419675 -1.580841 -0.821862 -1.414904 -1.118112 -1.117716 C -1.414362 -0.821466 -1.581237 -0.419279 -1.581237 -0.000216064 C -1.581237 0.419784 -1.414362 0.821971 -1.118112 1.118221 C -0.821862 1.414471 -0.419675 1.581346 0.000325317 1.581346 Z M 0.000325317 1.581346 " transform="matrix(4.166667,0,0,4.166667,708.408801,331.293869)"/>
<path style="fill-rule:nonzero;fill:rgb(0%,0%,0%);fill-opacity:1;stroke-width:1;stroke-linecap:butt;stroke-linejoin:round;stroke:rgb(0%,0%,0%);stroke-opacity:1;stroke-miterlimit:4;" d="M -0.0000695801 1.581239 C 0.418993 1.581239 0.82118 1.414364 1.118368 1.118114 C 1.414618 0.821864 1.581493 0.419677 1.581493 -0.000323486 C 1.581493 -0.419386 1.414618 -0.821573 1.118368 -1.117823 C 0.82118 -1.414073 0.418993 -1.580948 -0.0000695801 -1.580948 C -0.419132 -1.580948 -0.82132 -1.414073 -1.11757 -1.117823 C -1.414757 -0.821573 -1.580695 -0.419386 -1.580695 -0.000323486 C -1.580695 0.419677 -1.414757 0.821864 -1.11757 1.118114 C -0.82132 1.414364 -0.419132 1.581239 -0.0000695801 1.581239 Z M -0.0000695801 1.581239 " transform="matrix(4.166667,0,0,4.166667,738.18779,229.766973)"/>
<path style="fill-rule:nonzero;fill:rgb(0%,0%,0%);fill-opacity:1;stroke-width:1;stroke-linecap:butt;stroke-linejoin:round;stroke:rgb(0%,0%,0%);stroke-opacity:1;stroke-miterlimit:4;" d="M 0.000371704 1.581396 C 0.419434 1.581396 0.821622 1.414521 1.117872 1.118271 C 1.414122 0.821083 1.580997 0.418896 1.580997 -0.000166931 C 1.580997 -0.419229 1.414122 -0.821417 1.117872 -1.117667 C 0.821622 -1.414854 0.419434 -1.580792 0.000371704 -1.580792 C -0.419628 -1.580792 -0.821816 -1.414854 -1.118066 -1.117667 C -1.414316 -0.821417 -1.581191 -0.419229 -1.581191 -0.000166931 C -1.581191 0.418896 -1.414316 0.821083 -1.118066 1.118271 C -0.821816 1.414521 -0.419628 1.581396 0.000371704 1.581396 Z M 0.000371704 1.581396 " transform="matrix(4.166667,0,0,4.166667,760.22892,208.590539)"/>
<path style="fill-rule:nonzero;fill:rgb(0%,0%,0%);fill-opacity:1;stroke-width:1;stroke-linecap:butt;stroke-linejoin:round;stroke:rgb(0%,0%,0%);stroke-opacity:1;stroke-miterlimit:4;" d="M -0.00010498 1.581197 C 0.418958 1.581197 0.821145 1.414322 1.118333 1.118072 C 1.414583 0.821822 1.581458 0.419634 1.581458 -0.000365906 C 1.581458 -0.419428 1.414583 -0.821616 1.118333 -1.117866 C 0.821145 -1.414116 0.418958 -1.580991 -0.00010498 -1.580991 C -0.419167 -1.580991 -0.821355 -1.414116 -1.117605 -1.117866 C -1.414792 -0.821616 -1.58073 -0.419428 -1.58073 -0.000365906 C -1.58073 0.419634 -1.414792 0.821822 -1.117605 1.118072 C -0.821355 1.414322 -0.419167 1.581197 -0.00010498 1.581197 Z M -0.00010498 1.581197 " transform="matrix(4.166667,0,0,4.166667,778.019969,228.646056)"/>
<path style="fill-rule:nonzero;fill:rgb(0%,0%,0%);fill-opacity:1;stroke-width:1;stroke-linecap:butt;stroke-linejoin:round;stroke:rgb(0%,0%,0%);stroke-opacity:1;stroke-miterlimit:4;" d="M 0.00029541 1.58071 C 0.419358 1.58071 0.821545 1.414773 1.117795 1.117585 C 1.414983 0.821335 1.58092 0.419148 1.58092 0.0000854492 C 1.58092 -0.418977 1.414983 -0.821165 1.117795 -1.118352 C 0.821545 -1.414602 0.419358 -1.581477 0.00029541 -1.581477 C -0.419705 -1.581477 -0.821892 -1.414602 -1.118142 -1.118352 C -1.414392 -0.821165 -1.581267 -0.418977 -1.581267 0.0000854492 C -1.581267 0.419148 -1.414392 0.821335 -1.118142 1.117585 C -0.821892 1.414773 -0.419705 1.58071 0.00029541 1.58071 Z M 0.00029541 1.58071 " transform="matrix(4.166667,0,0,4.166667,813.451894,272.812144)"/>
<path style="fill-rule:nonzero;fill:rgb(0%,0%,0%);fill-opacity:1;stroke-width:1;stroke-linecap:butt;stroke-linejoin:round;stroke:rgb(0%,0%,0%);stroke-opacity:1;stroke-miterlimit:4;" d="M -0.000197754 1.580868 C 0.418865 1.580868 0.82199 1.414931 1.11824 1.117743 C 1.41449 0.821493 1.581365 0.419306 1.581365 0.000243225 C 1.581365 -0.419757 1.41449 -0.821944 1.11824 -1.118194 C 0.82199 -1.414444 0.418865 -1.581319 -0.000197754 -1.581319 C -0.41926 -1.581319 -0.821448 -1.414444 -1.117698 -1.118194 C -1.414885 -0.821944 -1.580823 -0.419757 -1.580823 0.000243225 C -1.580823 0.419306 -1.414885 0.821493 -1.117698 1.117743 C -0.821448 1.414931 -0.41926 1.580868 -0.000197754 1.580868 Z M -0.000197754 1.580868 " transform="matrix(4.166667,0,0,4.166667,822.524261,307.717737)"/>
<path style="fill-rule:nonzero;fill:rgb(0%,0%,0%);fill-opacity:1;stroke-width:1;stroke-linecap:butt;stroke-linejoin:round;stroke:rgb(0%,0%,0%);stroke-opacity:1;stroke-miterlimit:4;" d="M 0.0000335693 1.580699 C 0.419096 1.580699 0.821284 1.414761 1.118471 1.117574 C 1.414721 0.821324 1.581596 0.419136 1.581596 0.0000737 C 1.581596 -0.418989 1.414721 -0.821176 1.118471 -1.118364 C 0.821284 -1.414614 0.419096 -1.581489 0.0000335693 -1.581489 C -0.419029 -1.581489 -0.821216 -1.414614 -1.118404 -1.118364 C -1.414654 -0.821176 -1.581529 -0.418989 -1.581529 0.0000737 C -1.581529 0.419136 -1.414654 0.821324 -1.118404 1.117574 C -0.821216 1.414761 -0.419029 1.580699 0.0000335693 1.580699 Z M 0.0000335693 1.580699 " transform="matrix(4.166667,0,0,4.166667,863.398298,209.987974)"/>
<path style="fill-rule:nonzero;fill:rgb(0%,0%,0%);fill-opacity:1;stroke-width:1;stroke-linecap:butt;stroke-linejoin:round;stroke:rgb(0%,0%,0%);stroke-opacity:1;stroke-miterlimit:4;" d="M 0.000129395 1.580984 C 0.419192 1.580984 0.821379 1.414109 1.117629 1.117859 C 1.414817 0.821609 1.580754 0.419422 1.580754 0.000359192 C 1.580754 -0.419641 1.414817 -0.821828 1.117629 -1.118078 C 0.821379 -1.414328 0.419192 -1.581203 0.000129395 -1.581203 C -0.418933 -1.581203 -0.821121 -1.414328 -1.118308 -1.118078 C -1.414558 -0.821828 -1.581433 -0.419641 -1.581433 0.000359192 C -1.581433 0.419422 -1.414558 0.821609 -1.118308 1.117859 C -0.821121 1.414109 -0.418933 1.580984 0.000129395 1.580984 Z M 0.000129395 1.580984 " transform="matrix(4.166667,0,0,4.166667,876.921336,273.400847)"/>
<path style="fill-rule:nonzero;fill:rgb(0%,0%,0%);fill-opacity:1;stroke-width:1;stroke-linecap:butt;stroke-linejoin:round;stroke:rgb(0%,0%,0%);stroke-opacity:1;stroke-miterlimit:4;" d="M 0.000209961 1.580699 C 0.419272 1.580699 0.82146 1.414762 1.11771 1.117574 C 1.414897 0.821324 1.580835 0.419137 1.580835 0.0000743103 C 1.580835 -0.418988 1.414897 -0.821176 1.11771 -1.118363 C 0.82146 -1.414613 0.419272 -1.581488 0.000209961 -1.581488 C -0.41979 -1.581488 -0.821978 -1.414613 -1.118228 -1.118363 C -1.414478 -0.821176 -1.581353 -0.418988 -1.581353 0.0000743103 C -1.581353 0.419137 -1.414478 0.821324 -1.118228 1.117574 C -0.821978 1.414762 -0.41979 1.580699 0.000209961 1.580699 Z M 0.000209961 1.580699 " transform="matrix(4.166667,0,0,4.166667,925.307719,184.757503)"/>
<path style="fill-rule:nonzero;fill:rgb(0%,0%,0%);fill-opacity:1;stroke-width:1;stroke-linecap:butt;stroke-linejoin:round;stroke:rgb(0%,0%,0%);stroke-opacity:1;stroke-miterlimit:4;" d="M 0.000184937 1.581229 C 0.419247 1.581229 0.821435 1.414354 1.117685 1.118104 C 1.414872 0.821854 1.58081 0.419666 1.58081 -0.00033371 C 1.58081 -0.419396 1.414872 -0.821584 1.117685 -1.117834 C 0.821435 -1.414084 0.419247 -1.580959 0.000184937 -1.580959 C -0.418878 -1.580959 -0.821065 -1.414084 -1.118253 -1.117834 C -1.414503 -0.821584 -1.581378 -0.419396 -1.581378 -0.00033371 C -1.581378 0.419666 -1.414503 0.821854 -1.118253 1.118104 C -0.821065 1.414354 -0.418878 1.581229 0.000184937 1.581229 Z M 0.000184937 1.581229 " transform="matrix(4.166667,0,0,4.166667,940.811729,233.505297)"/>
<path style="fill-rule:nonzero;fill:rgb(0%,0%,0%);fill-opacity:1;stroke-width:1;stroke-linecap:butt;stroke-linejoin:round;stroke:rgb(0%,0%,0%);stroke-opacity:1;stroke-miterlimit:4;" d="M -0.000300903 1.581312 C 0.419699 1.581312 0.821887 1.414437 1.118137 1.118187 C 1.414387 0.821937 1.581262 0.41975 1.581262 -0.000250092 C 1.581262 -0.419313 1.414387 -0.8215 1.118137 -1.11775 C 0.821887 -1.414938 0.419699 -1.580875 -0.000300903 -1.580875 C -0.419363 -1.580875 -0.821551 -1.414938 -1.117801 -1.11775 C -1.414988 -0.8215 -1.580926 -0.419313 -1.580926 -0.000250092 C -1.580926 0.41975 -1.414988 0.821937 -1.117801 1.118187 C -0.821551 1.414437 -0.419363 1.581312 -0.000300903 1.581312 Z M -0.000300903 1.581312 " transform="matrix(4.166667,0,0,4.166667,964.794223,186.989323)"/>
<path style="fill-rule:nonzero;fill:rgb(0%,0%,0%);fill-opacity:1;stroke-width:1;stroke-linecap:butt;stroke-linejoin:round;stroke:rgb(0%,0%,0%);stroke-opacity:1;stroke-miterlimit:4;" d="M 0.000291138 1.581382 C 0.419354 1.581382 0.821541 1.414507 1.117791 1.118257 C 1.414979 0.821069 1.580916 0.418882 1.580916 -0.000180969 C 1.580916 -0.419243 1.414979 -0.821431 1.117791 -1.117681 C 0.821541 -1.414868 0.419354 -1.580806 0.000291138 -1.580806 C -0.419709 -1.580806 -0.821896 -1.414868 -1.118146 -1.117681 C -1.414396 -0.821431 -1.581271 -0.419243 -1.581271 -0.000180969 C -1.581271 0.418882 -1.414396 0.821069 -1.118146 1.118257 C -0.821896 1.414507 -0.419709 1.581382 0.000291138 1.581382 Z M 0.000291138 1.581382 " transform="matrix(4.166667,0,0,4.166667,987.623787,216.625754)"/>
<path style="fill-rule:nonzero;fill:rgb(0%,0%,0%);fill-opacity:1;stroke-width:1;stroke-linecap:butt;stroke-linejoin:round;stroke:rgb(0%,0%,0%);stroke-opacity:1;stroke-miterlimit:4;" d="M -0.000111084 1.581201 C 0.418951 1.581201 0.821139 1.414326 1.118326 1.118076 C 1.414576 0.821826 1.581451 0.419638 1.581451 -0.000361786 C 1.581451 -0.419424 1.414576 -0.821612 1.118326 -1.117862 C 0.821139 -1.414112 0.418951 -1.580987 -0.000111084 -1.580987 C -0.419174 -1.580987 -0.821361 -1.414112 -1.117611 -1.117862 C -1.414799 -0.821612 -1.580736 -0.419424 -1.580736 -0.000361786 C -1.580736 0.419638 -1.414799 0.821826 -1.117611 1.118076 C -0.821361 1.414326 -0.419174 1.581201 -0.000111084 1.581201 Z M -0.000111084 1.581201 " transform="matrix(4.166667,0,0,4.166667,1028.176244,187.271039)"/>
<path style="fill-rule:nonzero;fill:rgb(0%,0%,0%);fill-opacity:1;stroke-width:1;stroke-linecap:butt;stroke-linejoin:round;stroke:rgb(0%,0%,0%);stroke-opacity:1;stroke-miterlimit:4;" d="M -0.000368042 1.581353 C 0.419632 1.581353 0.821819 1.414478 1.118069 1.118228 C 1.414319 0.821978 1.581194 0.419791 1.581194 -0.000209198 C 1.581194 -0.419272 1.414319 -0.821459 1.118069 -1.117709 C 0.821819 -1.414897 0.419632 -1.580834 -0.000368042 -1.580834 C -0.419431 -1.580834 -0.821618 -1.414897 -1.117868 -1.117709 C -1.414118 -0.821459 -1.580993 -0.419272 -1.580993 -0.000209198 C -1.580993 0.419791 -1.414118 0.821978 -1.117868 1.118228 C -0.821618 1.414478 -0.419431 1.581353 -0.000368042 1.581353 Z M -0.000368042 1.581353 " transform="matrix(4.166667,0,0,4.166667,1046.493721,227.407122)"/>
<path style="fill-rule:nonzero;fill:rgb(0%,0%,0%);fill-opacity:1;stroke-width:1;stroke-linecap:butt;stroke-linejoin:round;stroke:rgb(0%,0%,0%);stroke-opacity:1;stroke-miterlimit:4;" d="M -0.000100098 1.581588 C 0.418962 1.581588 0.82115 1.414713 1.118337 1.118463 C 1.414587 0.821276 1.581462 0.419088 1.581462 0.0000256348 C 1.581462 -0.419037 1.414587 -0.821224 1.118337 -1.118412 C 0.82115 -1.414662 0.418962 -1.581537 -0.000100098 -1.581537 C -0.419163 -1.581537 -0.82135 -1.414662 -1.1176 -1.118412 C -1.414788 -0.821224 -1.580725 -0.419037 -1.580725 0.0000256348 C -1.580725 0.419088 -1.414788 0.821276 -1.1176 1.118463 C -0.82135 1.414713 -0.419163 1.581588 -0.000100098 1.581588 Z M -0.000100098 1.581588 " transform="matrix(4.166667,0,0,4.166667,1076.371511,104.089737)"/>
<path style="fill-rule:nonzero;fill:rgb(0%,0%,0%);fill-opacity:1;stroke-width:1;stroke-linecap:butt;stroke-linejoin:round;stroke:rgb(0%,0%,0%);stroke-opacity:1;stroke-miterlimit:4;" d="M -0.0000134277 1.581015 C 0.419049 1.581015 0.821237 1.41414 1.118424 1.11789 C 1.414674 0.82164 1.581549 0.419453 1.581549 0.00039032 C 1.581549 -0.41961 1.414674 -0.821797 1.118424 -1.118047 C 0.821237 -1.414297 0.419049 -1.581172 -0.0000134277 -1.581172 C -0.419076 -1.581172 -0.821263 -1.414297 -1.118451 -1.118047 C -1.414701 -0.821797 -1.581576 -0.41961 -1.581576 0.00039032 C -1.581576 0.419453 -1.414701 0.82164 -1.118451 1.11789 C -0.821263 1.41414 -0.419076 1.581015 -0.0000134277 1.581015 Z M -0.0000134277 1.581015 " transform="matrix(4.166667,0,0,4.166667,1088.468806,213.209311)"/>
<path style="fill-rule:nonzero;fill:rgb(0%,0%,0%);fill-opacity:1;stroke-width:1;stroke-linecap:butt;stroke-linejoin:round;stroke:rgb(0%,0%,0%);stroke-opacity:1;stroke-miterlimit:4;" d="M 0.000334473 1.581354 C 0.419397 1.581354 0.821584 1.414479 1.117834 1.118229 C 1.414084 0.821979 1.580959 0.419792 1.580959 -0.000208282 C 1.580959 -0.419271 1.414084 -0.821458 1.117834 -1.117708 C 0.821584 -1.414896 0.419397 -1.580833 0.000334473 -1.580833 C -0.419666 -1.580833 -0.821853 -1.414896 -1.118103 -1.117708 C -1.414353 -0.821458 -1.581228 -0.419271 -1.581228 -0.000208282 C -1.581228 0.419792 -1.414353 0.821979 -1.118103 1.118229 C -0.821853 1.414479 -0.419666 1.581354 0.000334473 1.581354 Z M 0.000334473 1.581354 " transform="matrix(4.166667,0,0,4.166667,1131.416575,186.28993)"/>
</g>
</svg>