<?xml version="1.0" encoding="UTF-8" standalone="no"?>
<svg
   xmlns:dc="http://purl.org/dc/elements/1.1/"
   xmlns:cc="http://creativecommons.org/ns#"
   xmlns:rdf="http://www.w3.org/1999/02/22-rdf-syntax-ns#"
   xmlns:svg="http://www.w3.org/2000/svg"
   xmlns="http://www.w3.org/2000/svg"
   xmlns:sodipodi="http://sodipodi.sourceforge.net/DTD/sodipodi-0.dtd"
   xmlns:inkscape="http://www.inkscape.org/namespaces/inkscape"
   width="605"
   height="600"
   viewBox="229 109 263 260"
   id="svg2"
   version="1.1"
   inkscape:version="0.48.3.1 r9886"
   sodipodi:docname="3d-solutionspace.svg">
  <metadata
     id="metadata88">
    <rdf:RDF>
      <cc:Work
         rdf:about="">
        <dc:format>image/svg+xml</dc:format>
        <dc:type
           rdf:resource="http://purl.org/dc/dcmitype/StillImage" />
        <dc:title></dc:title>
      </cc:Work>
    </rdf:RDF>
  </metadata>
  <defs
     id="defs86" />
  <sodipodi:namedview
     pagecolor="#ffffff"
     bordercolor="#666666"
     borderopacity="1"
     objecttolerance="10"
     gridtolerance="10"
     guidetolerance="10"
     inkscape:pageopacity="0"
     inkscape:pageshadow="2"
     inkscape:window-width="1366"
     inkscape:window-height="744"
     id="namedview84"
     showgrid="false"
     inkscape:zoom="0.78666667"
     inkscape:cx="58.050253"
     inkscape:cy="292.83356"
     inkscape:window-x="0"
     inkscape:window-y="24"
     inkscape:window-maximized="1"
     inkscape:current-layer="svg2"
     showguides="true"
     inkscape:guide-bbox="true" />
  <g
     style="fill-opacity:0.6;stroke:#0000aa;stroke-width:1;stroke-linejoin:round;stroke-opacity:1"
     id="g4"
     transform="matrix(0.98480775,-0.17364818,0.17364818,0.98480775,-36.226231,66.40389)">
    <polygon
       style="fill:#0000ff"
       points="291.9778,330.0145 343.0563,350.7237 387.3298,349.8279 397.8591,329.0523 371.4722,301.8345 324.5225,283.0066 281.7621,282.3538 267.1099,301.2514 "
       id="polygon6" />
    <polygon
       style="fill:#0000ff"
       points="385.6201,284.6003 429.0308,290.3878 460.9613,258.2857 461.141,206.2612 428.9138,166.593 384.778,163.2794 355.0506,196.4643 355.5972,246.0141 "
       id="polygon8" />
    <polygon
       style="fill:#0000ff"
       points="384.778,163.2794 428.9138,166.593 425.6496,153.1251 376.2329,133.9213 "
       id="polygon10" />
    <polygon
       style="fill:#0000ff"
       points="428.9138,166.593 461.141,206.2612 454.9188,177.4108 425.6496,153.1251 "
       id="polygon12" />
    <polygon
       style="fill:#0000ff"
       points="461.141,206.2612 460.9613,258.2857 466.2818,269.3646 473.0542,229.1948 "
       id="polygon14" />
    <polygon
       style="fill:#0000ff"
       points="454.9188,177.4108 461.141,206.2612 473.0542,229.1948 "
       id="polygon16" />
    <polygon
       style="fill:#0000ff"
       points="460.9613,258.2857 429.0308,290.3878 439.499,315.6145 466.2818,269.3646 "
       id="polygon18" />
    <polygon
       style="fill:#0000ff"
       points="254.1193,275.3199 267.1099,301.2514 249.7195,250.5401 "
       id="polygon20" />
    <polygon
       style="fill:#0000ff"
       points="274.0457,259.8958 308.0193,235.1624 333.1874,191.2522 336.2221,151.2933 314.0134,138.0451 277.9846,161.992 250.6962,209.8004 249.7195,250.5401 "
       id="polygon22" />
    <polygon
       style="fill:#0000ff"
       points="249.7195,250.5401 267.1099,301.2514 281.7621,282.3538 274.0457,259.8958 "
       id="polygon24" />
    <polygon
       style="fill:#0000ff"
       points="355.5972,246.0141 355.0506,196.4643 333.1874,191.2522 308.0193,235.1624 "
       id="polygon26" />
    <polygon
       style="fill:#0000ff"
       points="355.0506,196.4643 384.778,163.2794 336.2221,151.2933 333.1874,191.2522 "
       id="polygon28" />
    <polygon
       style="fill:#0000ff"
       points="384.778,163.2794 376.2329,133.9213 336.2221,151.2933 "
       id="polygon30" />
    <polygon
       style="fill:#0000ff"
       points="376.2329,133.9213 332.5647,129.7479 314.0134,138.0451 336.2221,151.2933 "
       id="polygon32" />
    <polygon
       style="fill:#0000ff"
       points="406.7889,343.7336 439.499,315.6145 397.8591,329.0523 387.3298,349.8279 "
       id="polygon34" />
    <polygon
       style="fill:#0000ff"
       points="429.0308,290.3878 385.6201,284.6003 371.4722,301.8345 397.8591,329.0523 "
       id="polygon36" />
    <polygon
       style="fill:#0000ff"
       points="439.499,315.6145 429.0308,290.3878 397.8591,329.0523 "
       id="polygon38" />
    <polygon
       style="fill:#0000ff"
       points="385.6201,284.6003 355.5972,246.0141 324.5225,283.0066 371.4722,301.8345 "
       id="polygon40" />
    <polygon
       style="fill:#0000ff"
       points="355.5972,246.0141 308.0193,235.1624 324.5225,283.0066 "
       id="polygon42" />
    <polygon
       style="fill:#0000ff"
       points="308.0193,235.1624 274.0457,259.8958 281.7621,282.3538 324.5225,283.0066 "
       id="polygon44" />
  </g>
  <polygon
     id="polygon48"
     points="286.3518,318.45 254.1193,275.3199 252.7463,220.5747 283.5658,184.2082 330.3562,188.3953 365.201,232.8955 365.7612,290.6767 332.331,325.672 "
     style="fill:#88ccff;fill-opacity:0.7;stroke:#0000aa;stroke-width:1"
     transform="matrix(0.98480775,-0.17364818,0.17364818,0.98480775,-36.226231,66.40389)" />
  <polygon
     id="polygon50"
     points="286.3518,318.45 332.331,325.672 343.0563,350.7237 291.9778,330.0145 "
     style="fill:#88ccff;fill-opacity:0.7;stroke:#0000aa;stroke-width:1"
     transform="matrix(0.98480775,-0.17364818,0.17364818,0.98480775,-36.226231,66.40389)" />
  <polygon
     id="polygon52"
     points="254.1193,275.3199 286.3518,318.45 291.9778,330.0145 267.1099,301.2514 "
     style="fill:#88ccff;fill-opacity:0.7;stroke:#0000aa;stroke-width:1"
     transform="matrix(0.98480775,-0.17364818,0.17364818,0.98480775,-36.226231,66.40389)" />
  <polygon
     id="polygon54"
     points="283.5658,184.2082 319.0985,143.7913 346.8754,169.2591 330.3562,188.3953 "
     style="fill:#88ccff;fill-opacity:0.7;stroke:#0000aa;stroke-width:1"
     transform="matrix(0.98480775,-0.17364818,0.17364818,0.98480775,-36.226231,66.40389)" />
  <polygon
     id="polygon5"
     points="400.8885,190.4341 346.8754,169.2591 319.0985,143.7913 332.5647,129.7479 376.2329,133.9213 425.6496,153.1251 454.9188,177.4108 446.0417,193.4216 "
     style="fill:#88ccff;fill-opacity:0.7;stroke:#0000aa;stroke-width:1"
     transform="matrix(0.98480775,-0.17364818,0.17364818,0.98480775,-36.226231,66.40389)" />
  <polygon
     id="polygon58"
     points="346.8754,169.2591 400.8885,190.4341 365.201,232.8955 330.3562,188.3953 "
     style="fill:#88ccff;fill-opacity:0.7;stroke:#0000aa;stroke-width:1"
     transform="matrix(0.98480775,-0.17364818,0.17364818,0.98480775,-36.226231,66.40389)" />
  <polygon
     id="polygon3"
     points="420.1039,245.5936 390.9055,296.189 365.7612,290.6767 365.201,232.8955 "
     style="fill:#88ccff;fill-opacity:0.7;stroke:#0000aa;stroke-width:1"
     transform="matrix(0.98480775,-0.17364818,0.17364818,0.98480775,-36.226231,66.40389)" />
  <polygon
     id="polygon4"
     points="400.8885,190.4341 420.1039,245.5936 365.201,232.8955 "
     style="fill:#88ccff;fill-opacity:0.7;stroke:#0000aa;stroke-width:1"
     transform="matrix(0.98480775,-0.17364818,0.17364818,0.98480775,-36.226231,66.40389)" />
  <polygon
     id="polygon64"
     points="454.6686,218.0871 420.1039,245.5936 400.8885,190.4341 446.0417,193.4216 "
     style="fill:#88ccff;fill-opacity:0.7;stroke:#0000aa;stroke-width:1"
     transform="matrix(0.98480775,-0.17364818,0.17364818,0.98480775,-36.226231,66.40389)" />
  <polygon
     id="polygon66"
     points="473.0542,229.1948 454.6686,218.0871 446.0417,193.4216 454.9188,177.4108 "
     style="fill:#88ccff;fill-opacity:0.7;stroke:#0000aa;stroke-width:1"
     transform="matrix(0.98480775,-0.17364818,0.17364818,0.98480775,-36.226231,66.40389)" />
  <polygon
     id="polygon68"
     points="406.7889,343.7336 385.9914,336.9641 390.9055,296.189 420.1039,245.5936 454.6686,218.0871 473.0542,229.1948 466.2818,269.3646 439.499,315.6145 "
     style="fill:#88ccff;fill-opacity:0.7;stroke:#0000aa;stroke-width:1"
     transform="matrix(0.98480775,-0.17364818,0.17364818,0.98480775,-36.226231,66.40389)" />
  <polygon
     id="polygon1"
     points="343.0563,350.7237 332.331,325.672 385.9914,336.9641 "
     style="fill:#88ccff;fill-opacity:0.7;stroke:#0000aa;stroke-width:1"
     transform="matrix(0.98480775,-0.17364818,0.17364818,0.98480775,-36.226231,66.40389)" />
  <polygon
     id="polygon2"
     points="385.9914,336.9641 332.331,325.672 365.7612,290.6767 390.9055,296.189 "
     style="fill:#88ccff;fill-opacity:0.7;stroke:#0000aa;stroke-width:1"
     transform="matrix(0.98480775,-0.17364818,0.17364818,0.98480775,-36.226231,66.40389)" />
  <polygon
     id="polygon74"
     points="343.0563,350.7237 385.9914,336.9641 406.7889,343.7336 387.3298,349.8279 "
     style="fill:#88ccff;fill-opacity:0.7;stroke:#0000aa;stroke-width:1"
     transform="matrix(0.98480775,-0.17364818,0.17364818,0.98480775,-36.226231,66.40389)" />
  <polygon
     id="polygon76"
     points="250.6962,209.8004 277.9846,161.992 283.5658,184.2082 252.7463,220.5747 "
     style="fill:#88ccff;fill-opacity:0.7;stroke:#0000aa;stroke-width:1"
     transform="matrix(0.98480775,-0.17364818,0.17364818,0.98480775,-36.226231,66.40389)" />
  <polygon
     id="polygon78"
     points="277.9846,161.992 319.0985,143.7913 283.5658,184.2082 "
     style="fill:#88ccff;fill-opacity:0.7;stroke:#0000aa;stroke-width:1"
     transform="matrix(0.98480775,-0.17364818,0.17364818,0.98480775,-36.226231,66.40389)" />
  <polygon
     id="polygon80"
     points="319.0985,143.7913 277.9846,161.992 314.0134,138.0451 332.5647,129.7479 "
     style="fill:#88ccff;fill-opacity:0.7;stroke:#0000aa;stroke-width:1"
     transform="matrix(0.98480775,-0.17364818,0.17364818,0.98480775,-36.226231,66.40389)" />
  <polygon
     id="polygon82"
     points="249.7195,250.5401 250.6962,209.8004 252.7463,220.5747 254.1193,275.3199 "
     style="fill:#88ccff;fill-opacity:0.7;stroke:#0000aa;stroke-width:1"
     transform="matrix(0.98480775,-0.17364818,0.17364818,0.98480775,-36.226231,66.40389)" />


<path
     id="simplexpath"
     d="M343.0563,350.7237 L332.331,325.672 L365.7612,290.6767 L365.201,232.8955 L400.8885,190.434 L346.8754,169.2591 L319.0985,143.7913 L332.5647,129.7479"
     style="fill:none;stroke:#ff0000;stroke-width:1.1"
     transform="matrix(0.98480775,-0.17364818,0.17364818,0.98480775,-36.226231,66.40389)" />

<circle 
     id="solution"
     cx="332.5647" cy="129.7479" r="2"  style="fill:#ff0000; stroke:none;" transform="matrix(0.98480775,-0.17364818,0.17364818,0.98480775,-36.226231,66.40389)"/>



</svg>
